<?xml version="1.0" standalone="no"?><!DOCTYPE svg PUBLIC "-//W3C//DTD SVG 1.1//EN" "http://www.w3.org/Graphics/SVG/1.1/DTD/svg11.dtd"><svg t="1537443053963" class="icon" style="" viewBox="0 0 1024 1024" version="1.1" xmlns="http://www.w3.org/2000/svg" p-id="2138" xmlns:xlink="http://www.w3.org/1999/xlink" width="200" height="200"><defs><style type="text/css"></style></defs><path d="M995.252706 178.130824l-22.317177-22.332236c-20.013176-20.013176-47.902118-46.125176-62.147764-58.217412-8.929882-7.559529-14.08-11.399529-17.694118-13.387294-23.627294-18.672941-63.653647-39.213176-92.084706-47.134117-1.325176-0.361412-32.993882-9.020235-85.639529-9.020236-93.138824 0-277.940706 28.581647-469.38353 220.024471C-36.592941 530.627765 29.620706 794.563765 32.602353 805.662118c7.574588 28.446118 27.572706 71.092706 44.604235 95.09647 0.587294 0.828235 1.957647 2.770824 13.778824 14.592l83.531294 83.531294a65.234824 65.234824 0 0 0 46.441412 19.169883 65.189647 65.189647 0 0 0 46.441411-19.169883l143.194353-143.194353c12.363294-12.363294 19.169882-28.852706 19.169883-46.441411s-6.806588-34.078118-19.169883-46.441412l-68.999529-68.99953c-16.64-16.64-30.795294-51.892706-30.283294-75.414588 0.030118-1.234824 4.080941-123.904 95.006117-214.829176 82.853647-82.853647 192.090353-96.210824 193.15953-96.316236 23.747765-2.695529 57.630118 9.728 73.758118 25.856l83.486117 83.576471c12.363294 12.363294 28.852706 19.184941 46.441412 19.184941s34.078118-6.806588 46.426353-19.169882l145.679059-145.679059c25.6-25.6 25.6-67.282824-0.015059-92.882823z m-21.293177 71.589647l-145.679058 145.679058c-13.357176 13.342118-36.924235 13.372235-50.281412-0.015058l-83.486118-83.576471c-22.512941-22.528-66.198588-38.098824-98.409412-34.499765-4.879059 0.557176-120.560941 14.426353-211.109647 104.975059-99.719529 99.719529-103.710118 229.948235-103.830588 235.444706-0.692706 31.984941 16.489412 74.767059 39.107765 97.385412l68.999529 68.999529a35.599059 35.599059 0 0 1 0 50.296471l-143.194353 143.194353c-13.372235 13.342118-36.939294 13.357176-50.29647 0l-83.516236-83.531294c-8.086588-8.086588-10.465882-10.721882-10.556235-10.752-14.998588-21.172706-33.340235-60.295529-40.026353-85.38353-0.677647-2.56-64.045176-258.936471 205.583059-528.564706C451.056941 85.609412 626.913882 58.157176 715.384471 58.157176c48.143059 0 77.296941 7.845647 77.537882 7.905883 24.801882 6.912 62.644706 26.458353 82.642823 42.661647l3.568942 2.906353 1.159529 0.090353c1.776941 1.28 5.150118 3.870118 10.992941 8.82447 13.733647 11.640471 40.794353 37.014588 60.340706 56.530824l22.317177 22.332235c13.884235 13.884235 13.884235 36.442353 0.015058 50.31153z" p-id="2139"></path></svg>